<?xml version="1.0" encoding="utf-8"?>
<svg version="1.1" xmlns:xlink="http://www.w3.org/1999/xlink" width="9px" height="9px" xmlns="http://www.w3.org/2000/svg">
  <g transform="matrix(1 0 0 1 -352 -597 )">
    <path d="M 356.5 597.5  C 358.74 597.5  360.5 599.26  360.5 601.5  C 360.5 603.74  358.74 605.5  356.5 605.5  C 354.26 605.5  352.5 603.74  352.5 601.5  C 352.5 599.26  354.26 597.5  356.5 597.5  Z " fill-rule="nonzero" fill="#d9001b" stroke="none" fill-opacity="0.298039215686275" />
    <path d="M 356.5 597.5  C 358.74 597.5  360.5 599.26  360.5 601.5  C 360.5 603.74  358.74 605.5  356.5 605.5  C 354.26 605.5  352.5 603.74  352.5 601.5  C 352.5 599.26  354.26 597.5  356.5 597.5  Z " stroke-width="1" stroke="#d9001b" fill="none" stroke-opacity="0.498039215686275" />
  </g>
</svg>