<?xml version="1.0" encoding="utf-8"?>
<svg version="1.1" xmlns:xlink="http://www.w3.org/1999/xlink" width="9px" height="9px" xmlns="http://www.w3.org/2000/svg">
  <g transform="matrix(1 0 0 1 -330 -590 )">
    <path d="M 334.5 590.5  C 336.74 590.5  338.5 592.26  338.5 594.5  C 338.5 596.74  336.74 598.5  334.5 598.5  C 332.26 598.5  330.5 596.74  330.5 594.5  C 330.5 592.26  332.26 590.5  334.5 590.5  Z " fill-rule="nonzero" fill="#02a7f0" stroke="none" fill-opacity="0.298039215686275" />
    <path d="M 334.5 590.5  C 336.74 590.5  338.5 592.26  338.5 594.5  C 338.5 596.74  336.74 598.5  334.5 598.5  C 332.26 598.5  330.5 596.74  330.5 594.5  C 330.5 592.26  332.26 590.5  334.5 590.5  Z " stroke-width="1" stroke="#02a7f0" fill="none" stroke-opacity="0.8" />
  </g>
</svg>