<?xml version="1.0" encoding="utf-8"?>
<svg version="1.1" xmlns:xlink="http://www.w3.org/1999/xlink" width="8px" height="8px" xmlns="http://www.w3.org/2000/svg">
  <g transform="matrix(1 0 0 1 -339 -611 )">
    <path d="M 343 611.5  C 344.96 611.5  346.5 613.04  346.5 615  C 346.5 616.96  344.96 618.5  343 618.5  C 341.04 618.5  339.5 616.96  339.5 615  C 339.5 613.04  341.04 611.5  343 611.5  Z " fill-rule="nonzero" fill="#ffcc00" stroke="none" fill-opacity="0.298039215686275" />
    <path d="M 343 611.5  C 344.96 611.5  346.5 613.04  346.5 615  C 346.5 616.96  344.96 618.5  343 618.5  C 341.04 618.5  339.5 616.96  339.5 615  C 339.5 613.04  341.04 611.5  343 611.5  Z " stroke-width="1" stroke="#ffcc00" fill="none" stroke-opacity="0.8" />
  </g>
</svg>