<?xml version="1.0" encoding="utf-8"?>
<svg version="1.1" xmlns:xlink="http://www.w3.org/1999/xlink" width="7px" height="7px" xmlns="http://www.w3.org/2000/svg">
  <g transform="matrix(1 0 0 1 -326 -600 )">
    <path d="M 329.5 600.5  C 331.18 600.5  332.5 601.82  332.5 603.5  C 332.5 605.18  331.18 606.5  329.5 606.5  C 327.82 606.5  326.5 605.18  326.5 603.5  C 326.5 601.82  327.82 600.5  329.5 600.5  Z " fill-rule="nonzero" fill="#95f204" stroke="none" fill-opacity="0.298039215686275" />
    <path d="M 329.5 600.5  C 331.18 600.5  332.5 601.82  332.5 603.5  C 332.5 605.18  331.18 606.5  329.5 606.5  C 327.82 606.5  326.5 605.18  326.5 603.5  C 326.5 601.82  327.82 600.5  329.5 600.5  Z " stroke-width="1" stroke="#95f204" fill="none" stroke-opacity="0.8" />
  </g>
</svg>