<?xml version="1.0" encoding="utf-8"?>
<svg version="1.1" xmlns:xlink="http://www.w3.org/1999/xlink" width="8px" height="8px" xmlns="http://www.w3.org/2000/svg">
  <g transform="matrix(1 0 0 1 -339 -586 )">
    <path d="M 343 586.5  C 344.96 586.5  346.5 588.04  346.5 590  C 346.5 591.96  344.96 593.5  343 593.5  C 341.04 593.5  339.5 591.96  339.5 590  C 339.5 588.04  341.04 586.5  343 586.5  Z " fill-rule="nonzero" fill="#b8741a" stroke="none" fill-opacity="0.298039215686275" />
    <path d="M 343 586.5  C 344.96 586.5  346.5 588.04  346.5 590  C 346.5 591.96  344.96 593.5  343 593.5  C 341.04 593.5  339.5 591.96  339.5 590  C 339.5 588.04  341.04 586.5  343 586.5  Z " stroke-width="1" stroke="#b8741a" fill="none" stroke-opacity="0.498039215686275" />
  </g>
</svg>