<?xml version="1.0" encoding="utf-8"?>
<svg version="1.1" xmlns:xlink="http://www.w3.org/1999/xlink" width="45px" height="59px" xmlns="http://www.w3.org/2000/svg">
  <defs>
    <mask fill="white" id="clip34">
      <path d="M 39.8744103658847 57.5780616015483  C 40.084547780931 59.4800954455897  43.5362938199901 59.1733985530126  43.3071269204439 57.1225041292425  C 42.3937870628117 48.9487075437227  41.7075566910939 41.3688422545163  37.6243292923476 34.7527625341166  C 35.2781662019102 30.9512593290395  32.125 28  28.2734972415805 25.3729906543799  C 28.787485681717 24.4161743007068  29.0769230769231 23.3178238476668  29.0769230769231 22.141792633596  C 29.0769230769231 18.3265914413455  26.0307692307692 15.3289333617203  22.1538461538461 15.3289333617203  C 18.2769230769231 15.3289333617203  15.2307692307692 18.3265914413455  15.2307692307692 22.141792633596  C 15.2307692307692 25.9569938258463  18.2769230769231 28.9546519054716  22.1538461538461 28.9546519054716  C 23.5503683541235 28.9546519054716  24.8390947834558 28.5656932732126  25.9164799676545 27.8896730020837  C 29.5 30.125  32.5939968225413 33.1463860354809  34.8012600274511 36.764826720335  C 38.5632194452032 42.9319331087735  39.0352091776876 49.98213175936  39.8744103658847 57.5780616015483  Z M 12.8638371207035 2.06453101265458  C 10.7496119793594 3.02951836914417  11.7525982930675 6.5103036655039  13.1725211158932 5.73906485945838  C 15.9152930533577 4.24931336008058  19.0908483721639 3.40642963593791  22.5 3.40642963593791  C 33.1615384615384 3.40642963593791  41.5384615384615 11.6499893549073  41.5384615384615 22.141792633596  C 41.5384615384615 26.4410479080645  41.1318612083933 29.3627922391788  38.7378496336141 32.4945097664901  C 38.2836420503925 33.0886797631596  40.3796314496759 35.9464391165919  40.9680915401215 35.236997988863  C 44.1248594133086 31.4312327444674  45 27.5381428346642  45 22.141792633596  C 45 9.74238875878223  35.1 0  22.5 0  C 19.0336240200342 0  15.7715977413351 0.737353419437682  12.8638371207035 2.06453101265458  Z M 0 22.141792633596  C 0 34.5411965084096  9.89999999999998 44.2835852671918  22.5 44.2835852671918  C 26.5586859683247 44.2835852671918  30.3372200354678 43.2727153661464  33.5949569979444 41.4877896194381  C 34.1880743203164 41.1628185147374  32.527348950114 38.1578214250103  31.9589880229714 38.4724115786867  C 29.1864115851949 40.0070442495575  25.9637768757655 40.877155631254  22.5 40.877155631254  C 11.8384615384616 40.877155631254  3.46153846153845 32.6335959122845  3.46153846153845 22.141792633596  C 3.46153846153845 19.9919380366807  3.81326280305967 17.936481105634  4.46429619352756 16.0270027752077  C 4.59549677418767 15.6421919968703  1.3702473228555 14.3900839618117  1.28992638469919 14.6148833424368  C 0.45350606702317 16.9558267336845  0 19.4879524879184  0 22.141792633596  Z " fill-rule="evenodd" />
    </mask>
  </defs>
  <g transform="matrix(1 0 0 1 -321 -581 )">
    <path d="M 39.8744103658847 57.5780616015483  C 40.084547780931 59.4800954455897  43.5362938199901 59.1733985530126  43.3071269204439 57.1225041292425  C 42.3937870628117 48.9487075437227  41.7075566910939 41.3688422545163  37.6243292923476 34.7527625341166  C 35.2781662019102 30.9512593290395  32.125 28  28.2734972415805 25.3729906543799  C 28.787485681717 24.4161743007068  29.0769230769231 23.3178238476668  29.0769230769231 22.141792633596  C 29.0769230769231 18.3265914413455  26.0307692307692 15.3289333617203  22.1538461538461 15.3289333617203  C 18.2769230769231 15.3289333617203  15.2307692307692 18.3265914413455  15.2307692307692 22.141792633596  C 15.2307692307692 25.9569938258463  18.2769230769231 28.9546519054716  22.1538461538461 28.9546519054716  C 23.5503683541235 28.9546519054716  24.8390947834558 28.5656932732126  25.9164799676545 27.8896730020837  C 29.5 30.125  32.5939968225413 33.1463860354809  34.8012600274511 36.764826720335  C 38.5632194452032 42.9319331087735  39.0352091776876 49.98213175936  39.8744103658847 57.5780616015483  Z M 12.8638371207035 2.06453101265458  C 10.7496119793594 3.02951836914417  11.7525982930675 6.5103036655039  13.1725211158932 5.73906485945838  C 15.9152930533577 4.24931336008058  19.0908483721639 3.40642963593791  22.5 3.40642963593791  C 33.1615384615384 3.40642963593791  41.5384615384615 11.6499893549073  41.5384615384615 22.141792633596  C 41.5384615384615 26.4410479080645  41.1318612083933 29.3627922391788  38.7378496336141 32.4945097664901  C 38.2836420503925 33.0886797631596  40.3796314496759 35.9464391165919  40.9680915401215 35.236997988863  C 44.1248594133086 31.4312327444674  45 27.5381428346642  45 22.141792633596  C 45 9.74238875878223  35.1 0  22.5 0  C 19.0336240200342 0  15.7715977413351 0.737353419437682  12.8638371207035 2.06453101265458  Z M 0 22.141792633596  C 0 34.5411965084096  9.89999999999998 44.2835852671918  22.5 44.2835852671918  C 26.5586859683247 44.2835852671918  30.3372200354678 43.2727153661464  33.5949569979444 41.4877896194381  C 34.1880743203164 41.1628185147374  32.527348950114 38.1578214250103  31.9589880229714 38.4724115786867  C 29.1864115851949 40.0070442495575  25.9637768757655 40.877155631254  22.5 40.877155631254  C 11.8384615384616 40.877155631254  3.46153846153845 32.6335959122845  3.46153846153845 22.141792633596  C 3.46153846153845 19.9919380366807  3.81326280305967 17.936481105634  4.46429619352756 16.0270027752077  C 4.59549677418767 15.6421919968703  1.3702473228555 14.3900839618117  1.28992638469919 14.6148833424368  C 0.45350606702317 16.9558267336845  0 19.4879524879184  0 22.141792633596  Z " fill-rule="nonzero" fill="#000000" stroke="none" fill-opacity="0.149019607843137" transform="matrix(1 0 0 1 321 581 )" />
    <path d="M 39.8744103658847 57.5780616015483  C 40.084547780931 59.4800954455897  43.5362938199901 59.1733985530126  43.3071269204439 57.1225041292425  C 42.3937870628117 48.9487075437227  41.7075566910939 41.3688422545163  37.6243292923476 34.7527625341166  C 35.2781662019102 30.9512593290395  32.125 28  28.2734972415805 25.3729906543799  C 28.787485681717 24.4161743007068  29.0769230769231 23.3178238476668  29.0769230769231 22.141792633596  C 29.0769230769231 18.3265914413455  26.0307692307692 15.3289333617203  22.1538461538461 15.3289333617203  C 18.2769230769231 15.3289333617203  15.2307692307692 18.3265914413455  15.2307692307692 22.141792633596  C 15.2307692307692 25.9569938258463  18.2769230769231 28.9546519054716  22.1538461538461 28.9546519054716  C 23.5503683541235 28.9546519054716  24.8390947834558 28.5656932732126  25.9164799676545 27.8896730020837  C 29.5 30.125  32.5939968225413 33.1463860354809  34.8012600274511 36.764826720335  C 38.5632194452032 42.9319331087735  39.0352091776876 49.98213175936  39.8744103658847 57.5780616015483  Z " stroke-width="2" stroke="#000000" fill="none" stroke-opacity="0.0980392156862745" transform="matrix(1 0 0 1 321 581 )" mask="url(#clip34)" />
    <path d="M 12.8638371207035 2.06453101265458  C 10.7496119793594 3.02951836914417  11.7525982930675 6.5103036655039  13.1725211158932 5.73906485945838  C 15.9152930533577 4.24931336008058  19.0908483721639 3.40642963593791  22.5 3.40642963593791  C 33.1615384615384 3.40642963593791  41.5384615384615 11.6499893549073  41.5384615384615 22.141792633596  C 41.5384615384615 26.4410479080645  41.1318612083933 29.3627922391788  38.7378496336141 32.4945097664901  C 38.2836420503925 33.0886797631596  40.3796314496759 35.9464391165919  40.9680915401215 35.236997988863  C 44.1248594133086 31.4312327444674  45 27.5381428346642  45 22.141792633596  C 45 9.74238875878223  35.1 0  22.5 0  C 19.0336240200342 0  15.7715977413351 0.737353419437682  12.8638371207035 2.06453101265458  Z " stroke-width="2" stroke="#000000" fill="none" stroke-opacity="0.0980392156862745" transform="matrix(1 0 0 1 321 581 )" mask="url(#clip34)" />
    <path d="M 0 22.141792633596  C 0 34.5411965084096  9.89999999999998 44.2835852671918  22.5 44.2835852671918  C 26.5586859683247 44.2835852671918  30.3372200354678 43.2727153661464  33.5949569979444 41.4877896194381  C 34.1880743203164 41.1628185147374  32.527348950114 38.1578214250103  31.9589880229714 38.4724115786867  C 29.1864115851949 40.0070442495575  25.9637768757655 40.877155631254  22.5 40.877155631254  C 11.8384615384616 40.877155631254  3.46153846153845 32.6335959122845  3.46153846153845 22.141792633596  C 3.46153846153845 19.9919380366807  3.81326280305967 17.936481105634  4.46429619352756 16.0270027752077  C 4.59549677418767 15.6421919968703  1.3702473228555 14.3900839618117  1.28992638469919 14.6148833424368  C 0.45350606702317 16.9558267336845  0 19.4879524879184  0 22.141792633596  Z " stroke-width="2" stroke="#000000" fill="none" stroke-opacity="0.0980392156862745" transform="matrix(1 0 0 1 321 581 )" mask="url(#clip34)" />
  </g>
</svg>