<?xml version="1.0" encoding="utf-8"?>
<svg version="1.1" xmlns:xlink="http://www.w3.org/1999/xlink" width="28px" height="28px" xmlns="http://www.w3.org/2000/svg">
  <g transform="matrix(1 0 0 1 -46 -557 )">
    <path d="M 60 557  C 67.84 557  74 563.16  74 571  C 74 578.84  67.84 585  60 585  C 52.16 585  46 578.84  46 571  C 46 563.16  52.16 557  60 557  Z " fill-rule="nonzero" fill="#ffffff" stroke="none" />
    <path d="M 60 557.5  C 67.56 557.5  73.5 563.44  73.5 571  C 73.5 578.56  67.56 584.5  60 584.5  C 52.44 584.5  46.5 578.56  46.5 571  C 46.5 563.44  52.44 557.5  60 557.5  Z " stroke-width="1" stroke="#d7d7d7" fill="none" />
  </g>
</svg>