<?xml version="1.0" encoding="utf-8"?>
<svg version="1.1" xmlns:xlink="http://www.w3.org/1999/xlink" width="28px" height="28px" xmlns="http://www.w3.org/2000/svg">
  <g transform="matrix(1 0 0 1 -46 -513 )">
    <path d="M 60 513  C 67.84 513  74 519.16  74 527  C 74 534.84  67.84 541  60 541  C 52.16 541  46 534.84  46 527  C 46 519.16  52.16 513  60 513  Z " fill-rule="nonzero" fill="#ffffff" stroke="none" />
    <path d="M 60 513.5  C 67.56 513.5  73.5 519.44  73.5 527  C 73.5 534.56  67.56 540.5  60 540.5  C 52.44 540.5  46.5 534.56  46.5 527  C 46.5 519.44  52.44 513.5  60 513.5  Z " stroke-width="1" stroke="#d7d7d7" fill="none" />
  </g>
</svg>