<?xml version="1.0" encoding="utf-8"?>
<svg version="1.1" xmlns:xlink="http://www.w3.org/1999/xlink" width="55px" height="55px" xmlns="http://www.w3.org/2000/svg">
  <defs>
    <filter x="311px" y="5px" width="55px" height="55px" filterUnits="userSpaceOnUse" id="filter186">
      <feOffset dx="0" dy="3" in="SourceAlpha" result="shadowOffsetInner" />
      <feGaussianBlur stdDeviation="1.5" in="shadowOffsetInner" result="shadowGaussian" />
      <feComposite in2="shadowGaussian" operator="atop" in="SourceAlpha" result="shadowComposite" />
      <feColorMatrix type="matrix" values="0 0 0 0 0  0 0 0 0 0  0 0 0 0 0  0 0 0 0.0980392156862745 0  " in="shadowComposite" />
    </filter>
    <g id="widget187">
      <path d="M 314.505105131844 28.9999882742827  C 314.771280532699 15.9759914195065  325.41224081683 5.5  338.5 5.5  C 351.754833995939 5.5  362.5 16.245166004061  362.5 29.5  C 362.5 42.754833995939  351.754833995939 53.5  338.5 53.5  C 325.41224081683 53.5  314.771280532699 43.0240085804935  314.505105131844 30.0000117257173  L 314.505105131603 28.9999882860767  Z " fill-rule="nonzero" fill="#ffffff" stroke="none" />
      <path d="M 314.505105131844 28.9999882742827  C 314.771280532699 15.9759914195065  325.41224081683 5.5  338.5 5.5  C 351.754833995939 5.5  362.5 16.245166004061  362.5 29.5  C 362.5 42.754833995939  351.754833995939 53.5  338.5 53.5  C 325.41224081683 53.5  314.771280532699 43.0240085804935  314.505105131844 30.0000117257173  L 314.505105131603 28.9999882860767  Z " stroke-width="1" stroke="#ffffff" fill="none" />
    </g>
  </defs>
  <g transform="matrix(1 0 0 1 -311 -5 )">
    <use xlink:href="#widget187" filter="url(#filter186)" />
    <use xlink:href="#widget187" />
  </g>
</svg>