<?xml version="1.0" encoding="utf-8"?>
<svg version="1.1" xmlns:xlink="http://www.w3.org/1999/xlink" width="50px" height="20px" xmlns="http://www.w3.org/2000/svg">
  <g transform="matrix(1 0 0 1 -114 -66 )">
    <path d="M 121.95967477525 66.5  C 121.95967477525 66.5  120.289604898275 66.834013975395  120.289604898275 66.834013975395  C 120.289604898275 66.834013975395  114.560863632897 76  114.560863632897 76  C 114.560863632897 76  120.289604898275 85.165986024605  120.289604898275 85.165986024605  C 120.289604898275 85.165986024605  121.95967477525 85.5  121.95967477525 85.5  C 121.95967477525 85.5  163.5 85.5  163.5 85.5  C 163.5 85.5  163.5 66.5  163.5 66.5  C 163.5 66.5  121.95967477525 66.5  121.95967477525 66.5  Z " fill-rule="nonzero" fill="#f2f2f2" stroke="none" />
    <path d="M 121.95967477525 66.5  C 121.95967477525 66.5  120.289604898275 66.834013975395  120.289604898275 66.834013975395  C 120.289604898275 66.834013975395  114.560863632897 76  114.560863632897 76  C 114.560863632897 76  120.289604898275 85.165986024605  120.289604898275 85.165986024605  C 120.289604898275 85.165986024605  121.95967477525 85.5  121.95967477525 85.5  C 121.95967477525 85.5  163.5 85.5  163.5 85.5  C 163.5 85.5  163.5 66.5  163.5 66.5  C 163.5 66.5  121.95967477525 66.5  121.95967477525 66.5  Z " stroke-width="1" stroke="#e4e4e4" fill="none" />
  </g>
</svg>