<?xml version="1.0" encoding="utf-8"?>
<svg version="1.1" xmlns:xlink="http://www.w3.org/1999/xlink" width="90px" height="20px" xmlns="http://www.w3.org/2000/svg">
  <g transform="matrix(1 0 0 1 -169 -66 )">
    <path d="M 176.74852915725 66.5  C 176.74852915725 66.5  175.265285475345 66.664804853545  175.265285475345 66.664804853545  C 175.265285475345 66.664804853545  169.536870271838 76  169.536870271838 76  C 169.536870271838 76  175.265285475345 85.335195146455  175.265285475345 85.335195146455  C 175.265285475345 85.335195146455  176.74852915725 85.5  176.74852915725 85.5  C 176.74852915725 85.5  258.5 85.5  258.5 85.5  C 258.5 85.5  258.5 66.5  258.5 66.5  C 258.5 66.5  176.74852915725 66.5  176.74852915725 66.5  Z " fill-rule="nonzero" fill="#f2f2f2" stroke="none" />
    <path d="M 176.74852915725 66.5  C 176.74852915725 66.5  175.265285475345 66.664804853545  175.265285475345 66.664804853545  C 175.265285475345 66.664804853545  169.536870271838 76  169.536870271838 76  C 169.536870271838 76  175.265285475345 85.335195146455  175.265285475345 85.335195146455  C 175.265285475345 85.335195146455  176.74852915725 85.5  176.74852915725 85.5  C 176.74852915725 85.5  258.5 85.5  258.5 85.5  C 258.5 85.5  258.5 66.5  258.5 66.5  C 258.5 66.5  176.74852915725 66.5  176.74852915725 66.5  Z " stroke-width="1" stroke="#e4e4e4" fill="none" />
  </g>
</svg>