<?xml version="1.0" encoding="utf-8"?>
<svg version="1.1" xmlns:xlink="http://www.w3.org/1999/xlink" width="45px" height="45px" xmlns="http://www.w3.org/2000/svg">
  <g transform="matrix(1 0 0 1 -316 -7 )">
    <path d="M 316.505570027812 28.9999912343908  C 316.771376152923 17.080657752736  326.516846818258 7.5  338.5 7.5  C 350.650264496277 7.5  360.5 17.3497355037225  360.5 29.5  C 360.5 41.6502644962775  350.650264496277 51.5  338.5 51.5  C 326.516846818258 51.5  316.771376152923 41.919342247264  316.505570027812 30.0000087656093  L 316.505570027641 28.9999912420858  Z " fill-rule="nonzero" fill="#ffcc00" stroke="none" />
    <path d="M 316.505570027812 28.9999912343908  C 316.771376152923 17.080657752736  326.516846818258 7.5  338.5 7.5  C 350.650264496277 7.5  360.5 17.3497355037225  360.5 29.5  C 360.5 41.6502644962775  350.650264496277 51.5  338.5 51.5  C 326.516846818258 51.5  316.771376152923 41.919342247264  316.505570027812 30.0000087656093  L 316.505570027641 28.9999912420858  Z " stroke-width="1" stroke="#ffcc00" fill="none" />
  </g>
</svg>