<?xml version="1.0" encoding="utf-8"?>
<svg version="1.1" xmlns:xlink="http://www.w3.org/1999/xlink" width="40px" height="40px" xmlns="http://www.w3.org/2000/svg">
  <g transform="matrix(1 0 0 1 -168 -163 )">
    <path d="M 188 163  C 199.2 163  208 171.8  208 183  C 208 194.2  199.2 203  188 203  C 176.8 203  168 194.2  168 183  C 168 171.8  176.8 163  188 163  Z " fill-rule="nonzero" fill="#ffffff" stroke="none" />
    <path d="M 188 163.5  C 198.92 163.5  207.5 172.08  207.5 183  C 207.5 193.92  198.92 202.5  188 202.5  C 177.08 202.5  168.5 193.92  168.5 183  C 168.5 172.08  177.08 163.5  188 163.5  Z " stroke-width="1" stroke="#d7d7d7" fill="none" />
  </g>
</svg>