<?xml version="1.0" encoding="utf-8"?>
<svg version="1.1" xmlns:xlink="http://www.w3.org/1999/xlink" width="54px" height="43px" xmlns="http://www.w3.org/2000/svg">
  <defs>
    <mask fill="white" id="clip190">
      <path d="M 48 37  L 18.5000000024338 37  L 17.9999942663146 36.9936600780874  C 7.87929153538653 36.7365913034236  0 28.6927444974464  0 18.5  C 0 8.30725550255363  7.87929153538653 0.263408696576448  18 0  L 18.5000000024338 0  L 48 0  L 48 37  Z " fill-rule="evenodd" />
    </mask>
    <filter x="326px" y="605px" width="54px" height="43px" filterUnits="userSpaceOnUse" id="filter191">
      <feOffset dx="2" dy="2" in="SourceAlpha" result="shadowOffsetInner" />
      <feGaussianBlur stdDeviation="1.5" in="shadowOffsetInner" result="shadowGaussian" />
      <feComposite in2="shadowGaussian" operator="atop" in="SourceAlpha" result="shadowComposite" />
      <feColorMatrix type="matrix" values="0 0 0 0 0  0 0 0 0 0  0 0 0 0 0  0 0 0 0.149019607843137 0  " in="shadowComposite" />
    </filter>
    <g id="widget192">
      <path d="M 48 37  L 18.5000000024338 37  L 17.9999942663146 36.9936600780874  C 7.87929153538653 36.7365913034236  0 28.6927444974464  0 18.5  C 0 8.30725550255363  7.87929153538653 0.263408696576448  18 0  L 18.5000000024338 0  L 48 0  L 48 37  Z " fill-rule="nonzero" fill="#d0cece" stroke="none" fill-opacity="0.498039215686275" transform="matrix(1 0 0 1 327 606 )" />
      <path d="M 48 37  L 18.5000000024338 37  L 17.9999942663146 36.9936600780874  C 7.87929153538653 36.7365913034236  0 28.6927444974464  0 18.5  C 0 8.30725550255363  7.87929153538653 0.263408696576448  18 0  L 18.5000000024338 0  L 48 0  L 48 37  Z " stroke-width="2" stroke="#c1bfbf" fill="none" transform="matrix(1 0 0 1 327 606 )" mask="url(#clip190)" />
    </g>
  </defs>
  <g transform="matrix(1 0 0 1 -326 -605 )">
    <use xlink:href="#widget192" filter="url(#filter191)" />
    <use xlink:href="#widget192" />
  </g>
</svg>