<?xml version="1.0" encoding="utf-8"?>
<svg version="1.1" xmlns:xlink="http://www.w3.org/1999/xlink" width="50px" height="20px" xmlns="http://www.w3.org/2000/svg">
  <g transform="matrix(1 0 0 1 -98 -110 )">
    <path d="M 105.95967477525 110.5  C 105.95967477525 110.5  104.289604898275 110.834013975395  104.289604898275 110.834013975395  C 104.289604898275 110.834013975395  98.5608636328965 120  98.5608636328965 120  C 98.5608636328965 120  104.289604898275 129.165986024605  104.289604898275 129.165986024605  C 104.289604898275 129.165986024605  105.95967477525 129.5  105.95967477525 129.5  C 105.95967477525 129.5  147.5 129.5  147.5 129.5  C 147.5 129.5  147.5 110.5  147.5 110.5  C 147.5 110.5  105.95967477525 110.5  105.95967477525 110.5  Z " fill-rule="nonzero" fill="#f2f2f2" stroke="none" />
    <path d="M 105.95967477525 110.5  C 105.95967477525 110.5  104.289604898275 110.834013975395  104.289604898275 110.834013975395  C 104.289604898275 110.834013975395  98.5608636328965 120  98.5608636328965 120  C 98.5608636328965 120  104.289604898275 129.165986024605  104.289604898275 129.165986024605  C 104.289604898275 129.165986024605  105.95967477525 129.5  105.95967477525 129.5  C 105.95967477525 129.5  147.5 129.5  147.5 129.5  C 147.5 129.5  147.5 110.5  147.5 110.5  C 147.5 110.5  105.95967477525 110.5  105.95967477525 110.5  Z " stroke-width="1" stroke="#e4e4e4" fill="none" />
  </g>
</svg>