<?xml version="1.0" encoding="utf-8"?>
<svg version="1.1" xmlns:xlink="http://www.w3.org/1999/xlink" width="90px" height="20px" xmlns="http://www.w3.org/2000/svg">
  <g transform="matrix(1 0 0 1 -153 -110 )">
    <path d="M 160.74852915725 110.5  C 160.74852915725 110.5  159.265285475345 110.664804853545  159.265285475345 110.664804853545  C 159.265285475345 110.664804853545  153.536870271838 120  153.536870271838 120  C 153.536870271838 120  159.265285475345 129.335195146455  159.265285475345 129.335195146455  C 159.265285475345 129.335195146455  160.74852915725 129.5  160.74852915725 129.5  C 160.74852915725 129.5  242.5 129.5  242.5 129.5  C 242.5 129.5  242.5 110.5  242.5 110.5  C 242.5 110.5  160.74852915725 110.5  160.74852915725 110.5  Z " fill-rule="nonzero" fill="#f2f2f2" stroke="none" />
    <path d="M 160.74852915725 110.5  C 160.74852915725 110.5  159.265285475345 110.664804853545  159.265285475345 110.664804853545  C 159.265285475345 110.664804853545  153.536870271838 120  153.536870271838 120  C 153.536870271838 120  159.265285475345 129.335195146455  159.265285475345 129.335195146455  C 159.265285475345 129.335195146455  160.74852915725 129.5  160.74852915725 129.5  C 160.74852915725 129.5  242.5 129.5  242.5 129.5  C 242.5 129.5  242.5 110.5  242.5 110.5  C 242.5 110.5  160.74852915725 110.5  160.74852915725 110.5  Z " stroke-width="1" stroke="#e4e4e4" fill="none" />
  </g>
</svg>