<?xml version="1.0" encoding="utf-8"?>
<svg version="1.1" xmlns:xlink="http://www.w3.org/1999/xlink" width="224px" height="11px" xmlns="http://www.w3.org/2000/svg">
  <defs>
    <mask fill="white" id="clip48">
      <path d="M 167.391304347826 11  C 165.168178383559 11  163.290268187693 9.72918586844088  162.425029815416 7.85714285714286  L 10.4449785917217 7.85714285714286  C 9.57942695123171 9.72909794650408  7.70146373656499 11  5.47826086956522 11  C 2.41043478260869 11  0 8.58  0 5.5  C 0 2.42  2.41043478260869 0  5.47826086956522 0  C 7.70146373656499 0  9.57942695123171 1.27090205349592  10.4450420187981 3.14285714285715  L 162.424676452105 3.14269246757774  C 163.290268190587 1.27081412960076  165.168178385272 0  167.391304347826 0  C 169.614633801894 0  171.492684287272 1.27104678553799  172.358919277179 3.14285714285715  L 224 3.14285714285715  L 224 7.85714285714286  L 172.358169908321 7.85679350227753  C 171.492684283091 9.72895321729183  169.614633799419 11  167.391304347826 11  Z " fill-rule="evenodd" />
    </mask>
  </defs>
  <g transform="matrix(1 0 0 1 -21 -8 )">
    <path d="M 167.391304347826 11  C 165.168178383559 11  163.290268187693 9.72918586844088  162.425029815416 7.85714285714286  L 10.4449785917217 7.85714285714286  C 9.57942695123171 9.72909794650408  7.70146373656499 11  5.47826086956522 11  C 2.41043478260869 11  0 8.58  0 5.5  C 0 2.42  2.41043478260869 0  5.47826086956522 0  C 7.70146373656499 0  9.57942695123171 1.27090205349592  10.4450420187981 3.14285714285715  L 162.424676452105 3.14269246757774  C 163.290268190587 1.27081412960076  165.168178385272 0  167.391304347826 0  C 169.614633801894 0  171.492684287272 1.27104678553799  172.358919277179 3.14285714285715  L 224 3.14285714285715  L 224 7.85714285714286  L 172.358169908321 7.85679350227753  C 171.492684283091 9.72895321729183  169.614633799419 11  167.391304347826 11  Z " fill-rule="nonzero" fill="#ffcc00" stroke="none" transform="matrix(1 0 0 1 21 8 )" />
    <path d="M 167.391304347826 11  C 165.168178383559 11  163.290268187693 9.72918586844088  162.425029815416 7.85714285714286  L 10.4449785917217 7.85714285714286  C 9.57942695123171 9.72909794650408  7.70146373656499 11  5.47826086956522 11  C 2.41043478260869 11  0 8.58  0 5.5  C 0 2.42  2.41043478260869 0  5.47826086956522 0  C 7.70146373656499 0  9.57942695123171 1.27090205349592  10.4450420187981 3.14285714285715  L 162.424676452105 3.14269246757774  C 163.290268190587 1.27081412960076  165.168178385272 0  167.391304347826 0  C 169.614633801894 0  171.492684287272 1.27104678553799  172.358919277179 3.14285714285715  L 224 3.14285714285715  L 224 7.85714285714286  L 172.358169908321 7.85679350227753  C 171.492684283091 9.72895321729183  169.614633799419 11  167.391304347826 11  Z " stroke-width="2" stroke="#ffcc00" fill="none" transform="matrix(1 0 0 1 21 8 )" mask="url(#clip48)" />
  </g>
</svg>