<?xml version="1.0" encoding="utf-8"?>
<svg version="1.1" xmlns:xlink="http://www.w3.org/1999/xlink" width="141px" height="11px" xmlns="http://www.w3.org/2000/svg">
  <defs>
    <mask fill="white" id="clip49">
      <path d="M 135.525641025641 11  C 133.304033293997 11  131.427415696928 9.7291112841088  130.562474471172 7.85714285714286  L 0 7.85714285714286  L 0 3.14285714285715  L 130.562474467558 3.14285726240313  C 131.427415696928 1.2708887158912  133.304033293997 0  135.525641025641 0  C 138.591282051282 0  141 2.42  141 5.5  C 141 8.58  138.591282051282 11  135.525641025641 11  Z " fill-rule="evenodd" />
    </mask>
  </defs>
  <g transform="matrix(1 0 0 1 -214 -8 )">
    <path d="M 135.525641025641 11  C 133.304033293997 11  131.427415696928 9.7291112841088  130.562474471172 7.85714285714286  L 0 7.85714285714286  L 0 3.14285714285715  L 130.562474467558 3.14285726240313  C 131.427415696928 1.2708887158912  133.304033293997 0  135.525641025641 0  C 138.591282051282 0  141 2.42  141 5.5  C 141 8.58  138.591282051282 11  135.525641025641 11  Z " fill-rule="nonzero" fill="#ffffff" stroke="none" transform="matrix(1 0 0 1 214 8 )" />
    <path d="M 135.525641025641 11  C 133.304033293997 11  131.427415696928 9.7291112841088  130.562474471172 7.85714285714286  L 0 7.85714285714286  L 0 3.14285714285715  L 130.562474467558 3.14285726240313  C 131.427415696928 1.2708887158912  133.304033293997 0  135.525641025641 0  C 138.591282051282 0  141 2.42  141 5.5  C 141 8.58  138.591282051282 11  135.525641025641 11  Z " stroke-width="2" stroke="#ffcc00" fill="none" transform="matrix(1 0 0 1 214 8 )" mask="url(#clip49)" />
  </g>
</svg>